<?xml version="1.0" encoding="UTF-8" standalone="no"?>
<!DOCTYPE svg PUBLIC "-//W3C//DTD SVG 1.1//EN" "http://www.w3.org/Graphics/SVG/1.1/DTD/svg11.dtd">
<svg width="100%" height="100%" viewBox="0 0 657 179" version="1.1" xmlns="http://www.w3.org/2000/svg" xmlns:xlink="http://www.w3.org/1999/xlink" xml:space="preserve" xmlns:serif="http://www.serif.com/" style="fill-rule:evenodd;clip-rule:evenodd;stroke-linejoin:round;stroke-miterlimit:2;">
    <path d="M172.039,71.843C172.893,72.428 173.647,73.047 174.299,73.7C176.079,75.48 177.303,77.413 177.971,79.499C178.638,81.585 178.972,83.768 178.972,86.049C178.972,92.168 176.942,96.924 172.881,100.318C168.82,103.711 163.174,105.408 155.942,105.408L129.658,105.408L129.658,43.243L155.942,43.243C160.225,43.243 163.897,43.966 166.956,45.413C170.016,46.859 172.352,48.931 173.965,51.629C175.579,54.327 176.385,57.595 176.385,61.434C176.385,64.159 175.634,66.76 174.132,69.235C173.571,70.161 172.873,71.03 172.039,71.843ZM142.591,94.143L157.444,94.143C160.058,94.143 162.144,93.392 163.702,91.89C165.26,90.388 166.038,88.441 166.038,86.049C166.038,83.601 165.26,81.627 163.702,80.125C162.144,78.623 160.058,77.872 157.444,77.872L142.591,77.872L142.591,94.143ZM142.591,66.607L156.86,66.607C158.862,66.607 160.462,66.037 161.658,64.896C162.854,63.756 163.452,62.24 163.452,60.349C163.452,58.458 162.854,56.942 161.658,55.801C160.462,54.661 158.862,54.091 156.86,54.091L142.591,54.091L142.591,66.607ZM186.565,105.408L186.565,42.242L199.082,42.242L199.082,105.408L186.565,105.408ZM233.46,101.087C232.947,101.607 232.419,102.088 231.874,102.529C230.261,103.836 228.453,104.81 226.451,105.449C224.448,106.089 222.223,106.409 219.775,106.409C216.493,106.409 213.656,105.881 211.264,104.824C208.872,103.767 207.036,102.251 205.757,100.276C204.478,98.301 203.838,95.951 203.838,93.225C203.838,90.666 204.422,88.399 205.59,86.425C206.758,84.45 208.552,82.795 210.972,81.46C213.392,80.125 216.41,79.179 220.026,78.623L232.625,76.586L232.625,75.368C232.625,73.644 231.944,72.198 230.581,71.029C229.218,69.861 227.369,69.277 225.032,69.277C222.807,69.277 220.846,69.889 219.15,71.113C217.453,72.337 216.215,73.95 215.436,75.953L205.423,71.196C206.313,68.637 207.732,66.44 209.679,64.604C211.626,62.769 213.962,61.35 216.688,60.349C219.414,59.348 222.39,58.847 225.616,58.847C229.455,58.847 232.848,59.542 235.796,60.933C238.745,62.324 241.039,64.257 242.68,66.732C244.321,69.208 245.142,72.086 245.142,75.368L245.142,105.408L233.46,105.408L233.46,101.087ZM232.625,85.787L222.279,87.635C220.498,87.968 219.136,88.538 218.19,89.345C217.244,90.152 216.771,91.306 216.771,92.808C216.771,94.199 217.3,95.283 218.357,96.062C219.414,96.841 220.721,97.23 222.279,97.23C224.337,97.23 226.145,96.785 227.702,95.895C229.26,95.005 230.47,93.795 231.332,92.266C232.194,90.736 232.625,89.053 232.625,87.217L232.625,85.787ZM267.085,94.56L288.949,94.56L288.949,105.408L249.731,105.408L249.731,95.395L272.146,70.696L250.816,70.696L250.816,59.848L288.866,59.848L288.866,69.861L267.085,94.56ZM290.868,105.408L290.868,59.848L303.385,59.848L303.385,105.408L290.868,105.408ZM290.868,55.76L290.868,43.243L303.385,43.243L303.385,55.76L290.868,55.76ZM321.658,65.391C322.716,63.396 324.204,61.869 326.123,60.808C328.487,59.501 331.254,58.847 334.425,58.847C337.874,58.847 340.892,59.57 343.479,61.016C346.065,62.463 348.082,64.479 349.528,67.066C350.974,69.653 351.698,72.679 351.698,76.144L351.698,105.408L339.181,105.408L339.181,78.79C339.181,77.01 338.834,75.48 338.138,74.2C337.443,72.921 336.467,71.92 335.21,71.196C333.953,70.473 332.507,70.112 330.871,70.112C329.235,70.112 327.778,70.473 326.498,71.196C325.219,71.92 324.231,72.921 323.536,74.2C322.841,75.48 322.493,77.01 322.493,78.79L322.493,105.408L309.976,105.408L309.976,59.848L321.658,59.848L321.658,65.391ZM390.165,98.666C389.099,99.728 387.903,100.599 386.577,101.277C384.129,102.529 381.264,103.155 377.982,103.155C373.754,103.155 369.972,102.195 366.634,100.276C363.296,98.357 360.682,95.715 358.79,92.349C356.899,88.983 355.953,85.159 355.953,80.876C355.953,76.592 356.899,72.796 358.79,69.486C360.682,66.176 363.268,63.575 366.55,61.684C369.832,59.793 373.56,58.847 377.732,58.847C381.014,58.847 383.879,59.501 386.326,60.808C388.067,61.737 389.624,63.011 390.999,64.63L390.999,59.848L402.681,59.848L402.681,102.988C402.681,106.993 401.707,110.567 399.76,113.71C397.813,116.853 395.157,119.315 391.792,121.095C388.426,122.875 384.546,123.765 380.151,123.765C376.647,123.765 373.393,123.181 370.389,122.013C367.385,120.845 364.812,119.217 362.67,117.131C360.529,115.045 358.985,112.584 358.039,109.747L369.638,105.658C370.25,107.772 371.501,109.441 373.393,110.665C375.284,111.888 377.537,112.5 380.151,112.5C382.21,112.5 383.99,112.125 385.492,111.374C386.994,110.623 388.148,109.524 388.955,108.078C389.761,106.632 390.165,104.935 390.165,102.988L390.165,98.666ZM379.734,91.807C381.848,91.807 383.684,91.362 385.241,90.472C386.799,89.581 388.009,88.33 388.871,86.717C389.733,85.103 390.165,83.212 390.165,81.043C390.165,78.873 389.72,76.968 388.829,75.327C387.939,73.686 386.716,72.406 385.158,71.488C383.6,70.571 381.793,70.112 379.734,70.112C377.62,70.112 375.743,70.571 374.102,71.488C372.461,72.406 371.181,73.686 370.264,75.327C369.346,76.968 368.887,78.873 368.887,81.043C368.887,83.156 369.346,85.02 370.264,86.633C371.181,88.246 372.461,89.512 374.102,90.43C375.743,91.348 377.62,91.807 379.734,91.807ZM451.495,63.687L440.647,105.408L425.628,105.408L409.356,43.243L423.375,43.243L433.813,87.553L444.819,43.243L458.17,43.243L469.176,87.553L479.615,43.243L493.633,43.243L477.362,105.408L462.342,105.408L451.495,63.687ZM514.41,106.409C509.904,106.409 505.802,105.38 502.102,103.322C498.403,101.263 495.455,98.44 493.258,94.852C491.06,91.264 489.962,87.189 489.962,82.628C489.962,78.011 491.06,73.922 493.258,70.362C495.455,66.802 498.403,63.993 502.102,61.934C505.802,59.876 509.904,58.847 514.41,58.847C518.916,58.847 523.005,59.876 526.676,61.934C530.348,63.993 533.282,66.802 535.479,70.362C537.677,73.922 538.775,78.011 538.775,82.628C538.775,87.189 537.677,91.264 535.479,94.852C533.282,98.44 530.348,101.263 526.676,103.322C523.005,105.38 518.916,106.409 514.41,106.409ZM514.41,95.144C516.691,95.144 518.68,94.616 520.376,93.559C522.073,92.502 523.408,91.028 524.382,89.136C525.355,87.245 525.842,85.076 525.842,82.628C525.842,80.18 525.355,78.025 524.382,76.161C523.408,74.298 522.073,72.823 520.376,71.739C518.68,70.654 516.691,70.112 514.41,70.112C512.129,70.112 510.127,70.654 508.402,71.739C506.678,72.823 505.329,74.298 504.355,76.161C503.382,78.025 502.895,80.18 502.895,82.628C502.895,85.076 503.382,87.245 504.355,89.136C505.329,91.028 506.678,92.502 508.402,93.559C510.127,94.616 512.129,95.144 514.41,95.144ZM558.134,66.643C559.133,64.178 560.51,62.428 562.264,61.392C564.573,60.029 567.313,59.348 570.483,59.348L573.154,59.348L573.154,70.195L569.232,70.195C566.172,70.195 563.697,71.127 561.805,72.99C559.914,74.854 558.968,77.482 558.968,80.876L558.968,105.408L546.452,105.408L546.452,59.848L558.134,59.848L558.134,66.643ZM587.172,91.462L587.172,105.408L574.656,105.408L574.656,42.242L587.172,42.242L587.172,76.246L602.609,59.848L618.046,59.848L601.524,78.206L617.962,105.408L603.777,105.408L592.203,85.978L587.172,91.462ZM638.239,106.409C633.232,106.409 628.879,105.227 625.18,102.863C621.481,100.499 618.963,97.314 617.628,93.309L626.807,88.97C627.975,91.417 629.561,93.336 631.563,94.727C633.566,96.118 635.791,96.813 638.239,96.813C640.019,96.813 641.382,96.452 642.327,95.728C643.273,95.005 643.746,94.004 643.746,92.724C643.746,92.057 643.579,91.487 643.245,91.014C642.911,90.541 642.411,90.11 641.743,89.721C641.076,89.331 640.241,88.997 639.24,88.719L631.48,86.55C627.753,85.493 624.888,83.782 622.885,81.418C620.883,79.054 619.881,76.259 619.881,73.032C619.881,70.195 620.604,67.72 622.051,65.606C623.497,63.492 625.528,61.837 628.142,60.641C630.757,59.445 633.761,58.847 637.154,58.847C641.604,58.847 645.512,59.89 648.878,61.976C652.243,64.062 654.621,66.996 656.012,70.779L646.75,75.118C646.082,73.227 644.872,71.711 643.12,70.571C641.368,69.43 639.379,68.86 637.154,68.86C635.541,68.86 634.275,69.194 633.357,69.861C632.439,70.529 631.98,71.447 631.98,72.615C631.98,73.227 632.147,73.783 632.481,74.284C632.815,74.784 633.357,75.229 634.108,75.619C634.859,76.008 635.791,76.37 636.904,76.704L644.163,78.873C647.946,79.986 650.838,81.668 652.841,83.921C654.844,86.174 655.845,88.942 655.845,92.224C655.845,95.061 655.108,97.536 653.634,99.65C652.16,101.764 650.115,103.419 647.501,104.615C644.886,105.811 641.799,106.409 638.239,106.409ZM-0,82.463C-0,79.993 0.18,77.565 0.529,75.191C2.538,56.892 9.584,40.967 21.419,27.079C21.953,31.349 23.278,36.542 25.631,40.33C26.243,39.983 49.75,-0 49.75,-0C78.171,19.465 94.933,45.012 98.748,73.806C99.242,76.618 99.5,79.511 99.5,82.463C99.5,109.927 77.208,132.224 49.75,132.224C22.292,132.224 -0,109.927 -0,82.463ZM20.865,91.578C20.865,107.53 33.814,120.481 49.762,120.481C65.711,120.481 78.659,107.53 78.659,91.578C78.659,89.445 78.428,87.366 77.988,85.364C75.281,70.009 65.027,57.623 49.762,47.207C34.497,57.623 24.243,70.009 21.536,85.364C21.097,87.366 20.865,89.445 20.865,91.578Z" style="fill:rgb(83,0,207);"/>
    <g transform="matrix(1.12366,0,0,1.12366,51.2763,-62.261)">
        <g transform="matrix(42.9594,0,0,42.9594,389.136,205.601)">
        </g>
        <text x="103.113px" y="205.601px" style="font-family:'PlusJakartaSans-Regular_ExtraBold', 'Plus Jakarta Sans';font-size:42.959px;fill:rgb(83,0,207);">Open-Source</text>
    </g>
</svg>
